<svg width="452" height="80" viewBox="0 0 452 80" fill="none" xmlns="http://www.w3.org/2000/svg">
<path d="M258.423 1.13576C258.134 1.12034 257.846 1.17004 257.579 1.28116C257.313 1.39229 257.074 1.562 256.882 1.77772C256.484 2.25255 256.277 2.85954 256.304 3.47892V45.8483L224.47 2.24636C224.287 1.94812 224.039 1.6949 223.745 1.50546C223.451 1.31603 223.118 1.19525 222.771 1.15208C222.423 1.10892 222.071 1.14447 221.739 1.25612C221.408 1.36776 221.106 1.55262 220.855 1.79698C220.425 2.25721 220.195 2.86865 220.213 3.49818V51.6452C220.174 52.2696 220.351 52.8885 220.714 53.3977C220.912 53.6206 221.158 53.7945 221.435 53.9059C221.711 54.0173 222.009 54.0631 222.306 54.0397C222.596 54.0561 222.885 54.0069 223.153 53.8957C223.421 53.7846 223.66 53.6143 223.853 53.3977C224.249 52.9214 224.452 52.3149 224.425 51.6965V9.19878L256.343 52.9034C256.557 53.2385 256.848 53.5172 257.192 53.7161C257.536 53.915 257.923 54.0282 258.32 54.0461C258.618 54.0657 258.916 54.0182 259.192 53.907C259.469 53.7959 259.717 53.6241 259.919 53.4041C260.314 52.9278 260.518 52.3213 260.49 51.703V3.55595C260.542 2.91009 260.339 2.26944 259.925 1.7713C259.743 1.55402 259.512 1.3831 259.251 1.27261C258.989 1.16212 258.706 1.11522 258.423 1.13576ZM425.731 0.763428C411.235 0.763428 399.461 12.7039 399.461 27.4048C399.461 42.1057 411.235 54.0461 425.731 54.0461C440.226 54.0461 452 42.1057 452 27.4048C452 12.7039 440.2 0.763428 425.731 0.763428ZM425.731 49.6936C413.617 49.6936 403.756 39.6919 403.756 27.4048C403.756 15.1177 413.617 5.11592 425.731 5.11592C437.844 5.11592 447.705 15.1177 447.705 27.4048C447.705 39.6919 437.844 49.6936 425.731 49.6936ZM304.65 2.68931C304.463 2.19218 304.115 1.77189 303.662 1.49526C303.215 1.20852 302.697 1.05487 302.166 1.05231C301.64 1.02164 301.119 1.16552 300.684 1.46157C300.249 1.75762 299.923 2.18924 299.759 2.68931L278.465 51.183C278.349 51.4408 278.296 51.7224 278.311 52.0047C278.305 52.276 278.359 52.5454 278.47 52.793C278.581 53.0407 278.746 53.2605 278.953 53.4362C279.22 53.6726 279.54 53.8412 279.887 53.9275C280.233 54.0139 280.595 54.0156 280.942 53.9325C281.289 53.8494 281.611 53.6838 281.88 53.45C282.15 53.2161 282.359 52.9207 282.49 52.5889L288.114 39.7176H316.392L321.938 52.5889C322.104 53.0128 322.398 53.3743 322.779 53.6224C323.109 53.8547 323.5 53.9843 323.903 53.9948C324.467 53.9995 325.014 53.8013 325.444 53.4362C325.648 53.2758 325.813 53.0699 325.924 52.8348C326.036 52.5997 326.091 52.3418 326.085 52.0817C326.079 51.7796 326.009 51.4822 325.88 51.2086L304.65 2.68931ZM289.77 35.7374L302.217 7.13167L314.62 35.7374H289.77ZM381.987 1.13576C381.702 1.11904 381.418 1.16826 381.155 1.2796C380.892 1.39094 380.658 1.5614 380.472 1.77772C380.074 2.25255 379.868 2.85954 379.895 3.47892V45.8483L348.028 2.195C347.834 1.86746 347.559 1.59547 347.23 1.40539C346.9 1.21531 346.527 1.11359 346.147 1.11009C345.83 1.08815 345.512 1.13407 345.214 1.24477C344.916 1.35547 344.645 1.52841 344.42 1.75205C343.99 2.21227 343.759 2.82371 343.778 3.45324V51.6002C343.741 52.2244 343.917 52.8426 344.279 53.3528C344.476 53.5756 344.723 53.7496 344.999 53.861C345.275 53.9724 345.574 54.0182 345.871 53.9948C346.16 54.0112 346.45 53.9619 346.718 53.8508C346.986 53.7396 347.225 53.5694 347.418 53.3528C347.814 52.8793 348.018 52.2745 347.989 51.658V9.19878L379.907 52.9034C380.122 53.2402 380.416 53.52 380.762 53.719C381.109 53.918 381.498 54.0302 381.897 54.0461C382.194 54.0656 382.491 54.0181 382.767 53.9069C383.042 53.7958 383.289 53.6239 383.49 53.4041C383.889 52.93 384.096 52.3225 384.067 51.703V3.55595C384.11 2.9321 383.915 2.31524 383.522 1.82908C383.342 1.59662 383.109 1.4118 382.841 1.2909C382.573 1.17 382.28 1.11673 381.987 1.13576Z" fill="#000034"/>
<path d="M102.747 40.7516C102.786 42.4831 102.482 44.2049 101.854 45.8161C101.226 47.4272 100.287 48.8952 99.0906 50.1336C97.8943 51.3721 96.4656 52.3562 94.8883 53.0281C93.311 53.6999 91.617 54.046 89.9057 54.046C88.1944 54.046 86.5003 53.6999 84.923 53.0281C83.3457 52.3562 81.917 51.3721 80.7208 50.1336C79.5245 48.8952 78.5849 47.4272 77.957 45.8161C77.3291 44.2049 77.0257 42.4831 77.0646 40.7516C77.0646 30.8697 73.8584 27.5713 64.2268 27.5713C54.5952 27.5713 51.389 30.8697 51.389 40.7516C51.3525 43.3129 50.5686 45.8062 49.1359 47.918C47.7032 50.0297 45.6857 51.6658 43.3369 52.6204C40.9881 53.5751 38.4129 53.8058 35.935 53.2834C33.457 52.7611 31.187 51.5091 29.4101 49.6848C27.6332 47.8606 26.4288 45.5454 25.9483 43.0303C25.4678 40.5153 25.7326 37.9126 26.7095 35.5494C27.6864 33.1863 29.3317 31.1681 31.4386 29.7486C33.5456 28.3291 36.0202 27.5716 38.5513 27.5713C48.1829 27.5713 51.389 24.2796 51.389 14.3978C51.389 10.952 52.7416 7.64727 55.1491 5.2107C57.5567 2.77412 60.822 1.40527 64.2268 1.40527C67.6316 1.40527 70.8969 2.77412 73.3045 5.2107C75.712 7.64727 77.0646 10.952 77.0646 14.3978C77.0646 24.2796 80.2773 27.5713 89.9023 27.5713C91.6017 27.5801 93.2827 27.9283 94.8488 28.596C96.4149 29.2637 97.8354 30.2378 99.0287 31.4623C100.222 32.6868 101.165 34.1377 101.803 35.7318C102.441 37.3259 102.762 39.0317 102.747 40.7516Z" fill="#209CE9"/>
<path d="M12.5544 79.7244C15.9001 79.6468 19.0834 78.2263 21.423 75.7667C23.7626 73.3071 25.0726 70.004 25.0726 66.5642C25.0726 63.1245 23.7626 59.8213 21.423 57.3618C19.0834 54.9022 15.9001 53.4816 12.5544 53.4041C9.20858 53.4816 6.02527 54.9022 3.68568 57.3618C1.3461 59.8213 0.0361328 63.1245 0.0361328 66.5642C0.0361328 70.004 1.3461 73.3071 3.68568 75.7667C6.02527 78.2263 9.20858 79.6468 12.5544 79.7244Z" fill="#209CE9"/>
<path d="M180.423 14.0078C180.439 17.4504 179.097 20.7587 176.69 23.2067C174.283 25.6547 171.009 27.0425 167.586 27.0654C157.954 27.0654 154.741 30.3431 154.741 40.1629C154.755 41.8712 154.434 43.5654 153.796 45.1487C153.158 46.7319 152.216 48.1731 151.024 49.3896C149.831 50.6062 148.412 51.5743 146.847 52.2385C145.282 52.9028 143.602 53.25 141.904 53.2605C132.279 53.2605 129.066 56.5316 129.066 66.3581C129.029 68.9034 128.245 71.381 126.813 73.4795C125.38 75.578 123.362 77.2038 121.014 78.1525C118.665 79.1011 116.09 79.3303 113.612 78.8113C111.134 78.2923 108.864 77.0481 107.087 75.2353C105.31 73.4224 104.106 71.1218 103.625 68.6225C103.145 66.1232 103.409 63.5369 104.386 61.1886C105.363 58.8402 107.008 56.8347 109.115 55.4241C111.222 54.0135 113.697 53.2608 116.228 53.2605C125.86 53.2605 129.066 49.9828 129.066 40.1629C129.054 38.4552 129.376 36.7617 130.014 35.1792C130.653 33.5968 131.595 32.1563 132.787 30.9401C133.979 29.7239 135.398 28.7557 136.962 28.0909C138.526 27.426 140.205 27.0776 141.904 27.0654C151.535 27.0654 154.741 23.7943 154.741 13.9745C154.702 12.2538 155.006 10.5428 155.634 8.94171C156.262 7.34067 157.201 5.88195 158.398 4.65124C159.594 3.42052 161.022 2.44263 162.6 1.77499C164.177 1.10735 165.871 0.763428 167.582 0.763428C169.294 0.763428 170.988 1.10735 172.565 1.77499C174.142 2.44263 175.571 3.42052 176.767 4.65124C177.964 5.88195 178.903 7.34067 179.531 8.94171C180.159 10.5428 180.462 12.2538 180.423 13.9745V14.0078Z" fill="#209CE9"/>
<path d="M220.939 79.5585C220.785 79.5654 220.63 79.5406 220.485 79.4853C220.341 79.4301 220.209 79.3458 220.098 79.2375C219.882 79.0042 219.767 78.6951 219.777 78.3773V64.5623C219.769 64.4134 219.79 64.2644 219.841 64.1242C219.892 63.9841 219.971 63.8557 220.073 63.747C220.188 63.6377 220.324 63.5529 220.473 63.4977C220.622 63.4425 220.781 63.4181 220.939 63.426H229.066C229.792 63.426 230.158 63.747 230.158 64.3825C230.158 65.0181 229.792 65.339 229.066 65.339H222.095V70.3592H228.611C229.342 70.3592 229.702 70.6737 229.702 71.3093C229.702 71.9448 229.342 72.2658 228.611 72.2658H222.095V78.3773C222.102 78.5349 222.077 78.6924 222.022 78.8402C221.967 78.9881 221.883 79.1232 221.774 79.2375C221.666 79.3475 221.535 79.4332 221.391 79.4885C221.247 79.5439 221.093 79.5677 220.939 79.5585Z" fill="#000034" fill-opacity="0.5"/>
<path d="M236.25 71.4366C236.245 70.6261 236.402 69.8228 236.712 69.0742C237.015 68.357 237.451 67.7036 237.996 67.1483C238.548 66.598 239.202 66.1617 239.922 65.8644C241.4 65.24 243.066 65.2272 244.553 65.8289C246.041 66.4307 247.229 67.5977 247.857 69.0742C248.167 69.8228 248.325 70.6261 248.319 71.4366C248.324 72.2259 248.172 73.0084 247.871 73.7382C247.57 74.4679 247.127 75.1302 246.566 75.6864C246.011 76.2314 245.357 76.667 244.641 76.9703C243.889 77.2881 243.081 77.4518 242.265 77.4518C241.449 77.4518 240.642 77.2881 239.89 76.9703C239.173 76.667 238.52 76.2314 237.964 75.6864C237.423 75.1275 236.988 74.4749 236.68 73.7605C236.384 73.0222 236.237 72.2321 236.25 71.4366ZM234.08 71.4366C234.073 72.5391 234.292 73.6314 234.722 74.6464C235.144 75.6206 235.745 76.5069 236.494 77.2592C237.251 78.0024 238.139 78.5988 239.113 79.0181C240.122 79.4377 241.205 79.6537 242.297 79.6537C243.39 79.6537 244.472 79.4377 245.482 79.0181C247.446 78.18 249.008 76.6129 249.84 74.6464C250.273 73.6315 250.496 72.5397 250.496 71.4366C250.496 70.3335 250.273 69.2417 249.84 68.2268C249.429 67.2445 248.83 66.3525 248.075 65.6012C247.334 64.85 246.45 64.2542 245.475 63.8486C244.469 63.4166 243.386 63.1938 242.291 63.1938C241.196 63.1938 240.113 63.4166 239.107 63.8486C237.129 64.6776 235.554 66.2463 234.716 68.2204C234.288 69.2381 234.072 70.3325 234.08 71.4366Z" fill="#000034" fill-opacity="0.5"/>
<path d="M262.665 79.9092C260.493 79.9092 258.844 79.3468 257.719 78.2221C256.595 77.0974 256.032 75.4411 256.032 73.2533V64.5175C256.032 64.1478 256.14 63.855 256.356 63.6393C256.571 63.4236 256.857 63.3158 257.211 63.3158C257.565 63.3158 257.85 63.4236 258.066 63.6393C258.282 63.855 258.39 64.1478 258.39 64.5175V73.4151C258.39 74.9096 258.744 76.042 259.453 76.8124C260.177 77.5827 261.248 77.9679 262.665 77.9679C264.067 77.9679 265.13 77.5827 265.854 76.8124C266.578 76.042 266.94 74.9096 266.94 73.4151V64.5175C266.94 64.1632 267.048 63.8782 267.264 63.6625C267.48 63.4313 267.765 63.3158 268.119 63.3158C268.473 63.3158 268.758 63.4236 268.974 63.6393C269.19 63.855 269.298 64.1478 269.298 64.5175V73.2533C269.298 75.4257 268.728 77.082 267.588 78.2221C266.463 79.3468 264.822 79.9092 262.665 79.9092Z" fill="#000034" fill-opacity="0.5"/>
<path d="M287.999 63.3158C288.153 63.3067 288.308 63.3346 288.45 63.3971C288.591 63.4596 288.716 63.555 288.814 63.6753C288.922 63.786 289.006 63.9178 289.062 64.0625C289.117 64.2071 289.142 64.3616 289.135 64.5163V78.3762C289.145 78.6941 289.03 79.0032 288.814 79.2364C288.707 79.3427 288.58 79.4261 288.439 79.4813C288.299 79.5365 288.149 79.5624 287.999 79.5574C287.82 79.5648 287.643 79.5269 287.484 79.4472C287.324 79.3675 287.188 79.2486 287.087 79.1016L278.157 67.3602V78.3762C278.17 78.6932 278.057 79.0022 277.843 79.2364C277.629 79.442 277.343 79.5568 277.047 79.5568C276.75 79.5568 276.465 79.442 276.251 79.2364C276.047 78.9975 275.941 78.69 275.955 78.3762V64.497C275.948 64.3424 275.973 64.1879 276.028 64.0432C276.084 63.8985 276.168 63.7668 276.276 63.6561C276.392 63.5397 276.531 63.4494 276.684 63.3912C276.837 63.333 277.001 63.3083 277.165 63.3186C277.328 63.3289 277.488 63.3741 277.632 63.4512C277.777 63.5282 277.903 63.6353 278.003 63.7652L286.888 75.5323V64.497C286.871 64.1887 286.978 63.8864 287.183 63.6561C287.283 63.5396 287.409 63.4482 287.55 63.3891C287.692 63.33 287.846 63.3049 287.999 63.3158Z" fill="#000034" fill-opacity="0.5"/>
<path d="M297.159 79.4419C297.004 79.4623 296.846 79.4471 296.698 79.3976C296.549 79.3481 296.414 79.2655 296.302 79.1561C296.19 79.0467 296.105 78.9133 296.052 78.766C295.999 78.6186 295.98 78.4612 295.997 78.3057V64.5613C295.99 64.4126 296.012 64.264 296.063 64.124C296.114 63.984 296.192 63.8556 296.293 63.746C296.408 63.6367 296.544 63.5519 296.693 63.4967C296.842 63.4415 297.001 63.4172 297.159 63.425H301.608C304.201 63.425 306.209 64.1226 307.63 65.5178C309.05 66.913 309.761 68.8817 309.761 71.4238C309.761 73.966 309.05 75.9411 307.63 77.3491C306.209 78.7572 304.201 79.4548 301.608 79.4419H297.159ZM301.473 77.516C305.406 77.516 307.375 75.4939 307.379 71.4495C307.383 67.4052 305.415 65.3916 301.473 65.4087H298.34V77.516H301.473Z" fill="#000034" fill-opacity="0.5"/>
<path d="M329.848 78.0809C329.914 78.2221 329.951 78.3748 329.957 78.5303C329.959 78.6719 329.927 78.8119 329.865 78.939C329.802 79.0661 329.711 79.1768 329.598 79.2621C329.383 79.4509 329.107 79.5557 328.821 79.5574C328.622 79.5541 328.427 79.4987 328.256 79.3969C328.084 79.2686 327.951 79.0953 327.871 78.8962L326.369 75.4874H318.055L316.56 78.8962C316.474 79.0996 316.332 79.2737 316.149 79.3969C315.978 79.4987 315.783 79.5541 315.584 79.5574C315.284 79.558 314.993 79.4535 314.762 79.2621C314.655 79.1729 314.569 79.061 314.51 78.9344C314.451 78.8079 314.421 78.6698 314.422 78.5303C314.431 78.3745 314.47 78.2219 314.537 78.0809L320.957 64.0605C321.058 63.8228 321.234 63.6244 321.458 63.4956C321.682 63.3642 321.936 63.2934 322.196 63.2902C322.454 63.2914 322.707 63.3624 322.928 63.4956C323.157 63.6234 323.339 63.8214 323.448 64.0605L329.848 78.0809ZM318.896 73.6257H325.553L322.196 66.1084L318.896 73.6257Z" fill="#000034" fill-opacity="0.5"/>
<path d="M338.624 79.5576C338.304 79.5678 337.993 79.4526 337.757 79.2366C337.543 79.0024 337.43 78.6934 337.443 78.3764V65.3832H332.898C332.172 65.3832 331.806 65.0558 331.806 64.4074C331.796 64.2727 331.816 64.1374 331.864 64.0111C331.911 63.8847 331.986 63.7702 332.082 63.6755C332.315 63.4962 332.604 63.4072 332.898 63.4252H344.344C344.631 63.404 344.916 63.4936 345.14 63.6755C345.241 63.767 345.321 63.8805 345.372 64.0073C345.423 64.1341 345.445 64.271 345.435 64.4074C345.435 65.0493 345.069 65.3832 344.344 65.3832H339.805V78.3764C339.816 78.6943 339.7 79.0034 339.484 79.2366C339.37 79.3455 339.235 79.43 339.087 79.4852C338.939 79.5403 338.781 79.565 338.624 79.5576Z" fill="#000034" fill-opacity="0.5"/>
<path d="M351.688 79.5574C351.534 79.5635 351.381 79.5382 351.237 79.483C351.094 79.4278 350.963 79.3439 350.853 79.2364C350.743 79.123 350.658 78.988 350.602 78.84C350.547 78.6919 350.523 78.534 350.532 78.3762V64.497C350.524 64.3422 350.548 64.1874 350.604 64.0426C350.659 63.8977 350.744 63.7661 350.853 63.6561C350.959 63.5422 351.089 63.4527 351.233 63.394C351.377 63.3352 351.532 63.3086 351.688 63.3158C351.846 63.3021 352.006 63.3233 352.155 63.3778C352.305 63.4323 352.441 63.5189 352.553 63.6314C352.666 63.744 352.752 63.8797 352.807 64.0293C352.861 64.1788 352.883 64.3385 352.869 64.497V78.3762C352.877 78.5334 352.854 78.6907 352.8 78.8386C352.746 78.9865 352.662 79.1218 352.554 79.2364C352.44 79.3477 352.304 79.4337 352.155 79.489C352.006 79.5443 351.846 79.5676 351.688 79.5574Z" fill="#000034" fill-opacity="0.5"/>
<path d="M392.458 63.3158C392.607 63.3084 392.757 63.3352 392.895 63.3941C393.033 63.4531 393.155 63.5426 393.254 63.656C393.362 63.7667 393.446 63.8985 393.501 64.0432C393.557 64.1878 393.582 64.3423 393.575 64.497V78.3762C393.585 78.694 393.47 79.0031 393.254 79.2364C393.147 79.3427 393.019 79.426 392.879 79.4812C392.739 79.5364 392.589 79.5623 392.438 79.5574C392.258 79.5633 392.08 79.5227 391.92 79.4395C391.76 79.3563 391.625 79.2332 391.527 79.0823L382.623 67.3409V78.3762C382.635 78.6931 382.522 79.0021 382.308 79.2364C382.094 79.442 381.809 79.5568 381.512 79.5568C381.215 79.5568 380.93 79.442 380.716 79.2364C380.509 78.9991 380.403 78.6904 380.421 78.3762V64.497C380.413 64.3427 380.437 64.1885 380.491 64.0439C380.545 63.8993 380.628 63.7672 380.735 63.656C380.84 63.5438 380.968 63.4554 381.109 63.3967C381.251 63.338 381.404 63.3104 381.557 63.3158C381.734 63.3075 381.91 63.3445 382.068 63.4231C382.226 63.5018 382.362 63.6195 382.462 63.7651L391.366 75.5323V64.497C391.353 64.1891 391.459 63.8881 391.662 63.656C391.76 63.5426 391.882 63.4531 392.02 63.3941C392.158 63.3352 392.308 63.3084 392.458 63.3158Z" fill="#000034" fill-opacity="0.5"/>
<path d="M360.501 71.4367C360.495 70.6262 360.652 69.8229 360.963 69.0743C361.266 68.3571 361.701 67.7037 362.247 67.1484C362.798 66.5981 363.453 66.1618 364.173 65.8645C364.916 65.5405 365.718 65.3765 366.529 65.383C367.346 65.3763 368.155 65.5403 368.904 65.8645C369.626 66.1582 370.281 66.5949 370.83 67.1484C371.38 67.7002 371.816 68.3546 372.114 69.0743C372.425 69.8229 372.582 70.6262 372.576 71.4367C372.58 72.2387 372.423 73.0334 372.114 73.7734C371.501 75.2196 370.35 76.3707 368.904 76.9832C368.153 77.301 367.345 77.4648 366.529 77.4648C365.713 77.4648 364.905 77.301 364.154 76.9832C363.436 76.6816 362.782 76.2458 362.228 75.6993C361.687 75.1404 361.252 74.4879 360.944 73.7734C360.641 73.0321 360.49 72.2374 360.501 71.4367ZM358.331 71.4367C358.324 72.5392 358.542 73.6315 358.973 74.6465C359.816 76.617 361.39 78.1841 363.364 79.0182C364.373 79.4378 365.455 79.6538 366.548 79.6538C367.641 79.6538 368.723 79.4378 369.732 79.0182C370.702 78.6002 371.584 78.0035 372.332 77.2593C373.079 76.5096 373.675 75.6223 374.085 74.6465C374.521 73.6327 374.747 72.5405 374.747 71.4367C374.747 70.3329 374.521 69.2407 374.085 68.2269C373.254 66.2522 371.679 64.684 369.7 63.8616C368.694 63.4296 367.611 63.2068 366.516 63.2068C365.421 63.2068 364.338 63.4296 363.332 63.8616C362.354 64.2662 361.465 64.857 360.713 65.6013C359.959 66.3524 359.358 67.2417 358.941 68.2205C358.522 69.2401 358.314 70.3343 358.331 71.4367Z" fill="#000034" fill-opacity="0.5"/>
</svg>
